<svg width="192.000000pt" height="188.000000pt" viewBox="0 0 192.000000 188.000000" xmlns="http://www.w3.org/2000/svg">
  <g transform="translate(0.000000,188.000000) scale(0.100000,-0.100000)" fill="#fefefe" stroke="none">
    <path d="M0 940 l0 -940 960 0 960 0 0 940 0 940 -960 0 -960 0 0 -940z m855
886 c55 -26 125 -76 108 -76 -7 0 -15 5 -18 10 -4 6 -30 22 -58 37 l-52 27
-70 1 -70 0 -82 -38 c-96 -44 -157 -64 -227 -72 l-51 -6 -45 11 c-25 6 -56 14
-69 17 l-24 6 7 -24 c5 -13 13 -51 18 -84 l11 -61 -16 -77 c-9 -42 -33 -114
-54 -159 l-38 -83 0 -80 0 -80 22 -47 c32 -69 19 -59 -18 14 l-32 63 -5 61 -5
62 47 115 c48 119 66 195 66 283 l0 51 -22 44 -23 44 35 -17 34 -18 67 0 c92
0 152 13 271 59 l103 39 70 1 70 1 50 -24z m521 -21 c112 -47 192 -65 284 -65
l76 0 39 20 c48 24 52 25 33 3 -8 -10 -19 -30 -26 -46 l-12 -28 10 -92 c12
-109 21 -144 66 -254 l34 -82 0 -65 0 -65 -20 -55 c-12 -30 -27 -60 -35 -66
l-15 -12 22 48 22 49 1 70 0 70 -39 85 c-67 149 -83 226 -67 335 12 84 15 80
-48 59 l-52 -17 -65 7 c-62 6 -140 31 -283 91 l-64 27 -53 -4 -53 -5 -61 -30
-62 -31 18 19 c11 9 42 29 69 43 l50 25 73 1 73 0 85 -35z m57 -377 c-17 -18
-56 -73 -87 -123 -71 -115 -80 -128 -60 -85 39 83 152 240 173 240 3 0 -9 -15
-26 -32z m143 -55 c-9 -16 -25 -39 -36 -53 l-21 -25 10 22 c6 12 11 33 11 47
l0 25 18 4 c31 8 33 7 18 -20z m-520 -39 c18 -43 18 -111 -1 -198 -8 -38 -13
-72 -11 -75 6 -9 -31 -57 -38 -50 -3 3 3 41 14 85 12 43 23 106 26 139 l6 60
-15 42 c-17 49 -2 47 19 -3z m527 -156 l-18 -20 -3 16 c-2 9 -9 16 -15 17 -7
0 -3 4 8 8 11 5 26 6 33 3 l13 -4 -18 -20z m-303 -35 c0 -7 -13 -19 -29 -27
l-29 -15 -41 -72 c-23 -39 -41 -77 -41 -85 0 -8 -4 -14 -9 -14 -12 0 -61 -84
-61 -103 0 -8 -9 -17 -20 -20 -11 -3 -23 -13 -27 -24 -4 -10 -14 -25 -23 -33
-9 -8 -19 -22 -22 -31 -4 -9 -18 -19 -33 -21 l-26 -5 16 17 c8 9 15 20 15 24
0 10 22 32 38 37 17 6 101 119 108 147 3 12 10 22 15 22 27 0 90 144 67 153
l-13 5 33 12 33 12 15 31 16 30 9 -14 c5 -8 9 -20 9 -26z m321 -82 l-30 -32
-3 -42 -4 -42 -8 19 -9 19 13 36 c7 20 24 46 39 58 36 30 37 22 2 -16z m-169
-1 l-4 -29 22 -45 c24 -51 72 -96 101 -96 l20 0 -6 -10 c-11 -18 -35 -10 -74
25 l-39 36 -16 46 c-17 50 -21 103 -8 103 5 0 7 -13 4 -30z m-76 -39 c-9 -10
-16 -30 -16 -44 0 -15 -4 -27 -9 -27 -21 0 -19 20 7 71 l27 54 3 -18 c2 -10
-3 -26 -12 -36z m-570 -1 c8 0 14 5 14 12 0 6 3 9 6 5 21 -21 -33 -82 -57 -65
l-14 10 13 5 c6 2 12 17 13 31 0 15 3 21 6 15 2 -7 11 -13 19 -13z m-635 -162
l-26 -53 0 -80 0 -80 39 -90 c21 -49 42 -97 46 -106 4 -8 11 -49 15 -90 l7
-74 -11 -40 c-5 -22 -12 -49 -16 -60 l-6 -20 148 0 148 0 100 -45 100 -45 70
0 70 0 52 26 c29 14 48 20 42 13 -6 -7 -34 -24 -62 -39 l-51 -25 -74 0 -73 0
-85 35 c-111 46 -192 65 -279 65 l-70 0 -40 -19 -41 -18 23 46 22 46 1 55 c0
80 -22 172 -69 284 l-41 98 0 57 0 56 31 65 c27 57 47 90 54 90 1 0 -10 -24
-24 -52z m749 4 c3 -2 -1 -7 -7 -9 -7 -3 -13 -11 -13 -19 l0 -14 -19 0 c-10 0
-32 -15 -48 -33 -16 -18 -37 -36 -46 -40 l-17 -6 0 -46 0 -46 23 -9 22 -9 -22
0 -22 -1 -15 22 -15 22 5 23 6 23 -15 0 c-9 0 -19 -4 -22 -10 -3 -5 -15 -10
-25 -10 -11 0 -25 -6 -32 -14 l-13 -14 -37 30 -37 29 -7 35 -6 35 10 32 10 32
1 -41 1 -42 18 -22 17 -21 40 -6 41 -5 37 16 c21 8 40 23 44 33 4 10 10 20 13
23 4 3 12 14 18 25 l11 20 1 -17 c0 -23 19 -22 48 1 25 21 28 37 10 45 -7 3
-2 3 12 0 14 -4 27 -9 30 -12z m962 -66 l17 -41 0 -67 1 -68 -39 -97 c-46
-114 -65 -209 -59 -298 l4 -65 23 -31 c13 -17 20 -30 15 -27 -5 2 -27 12 -49
22 l-40 19 -90 -6 c-90 -6 -149 -21 -279 -71 l-68 -26 -67 0 -66 0 -40 19
c-22 10 -49 26 -60 35 l-20 15 60 -24 60 -25 45 0 45 0 85 36 c107 45 167 64
203 64 15 0 36 5 46 12 l19 11 58 -12 c33 -7 70 -15 83 -18 l24 -6 -6 24 c-3
13 -11 46 -18 73 l-11 49 11 71 12 70 47 106 47 105 0 70 -1 70 -22 50 -21 50
17 -24 c9 -13 25 -43 34 -65z m-1313 -120 l23 -13 -18 -7 -19 -7 -3 10 c-2 6
-10 11 -18 11 -8 0 -14 5 -14 10 0 14 20 12 49 -4z m1233 -43 l-5 -26 -13 18
c-19 25 -17 35 5 35 l18 0 -5 -27z m-692 10 c-28 -11 -45 -73 -20 -73 6 0 10
-4 10 -10 0 -17 -27 1 -38 26 l-12 24 10 0 c6 0 10 9 10 20 l0 20 28 -1 27 -1
-15 -5z m-570 -66 l0 -14 -30 5 c-17 2 -33 8 -36 13 l-5 9 35 0 36 0 0 -13z
m1044 -20 l-4 -12 -40 3 c-22 2 -40 0 -40 -5 l0 -9 -37 5 -38 5 80 12 c44 6
81 12 82 13 1 0 0 -5 -3 -12z m-807 -29 c-34 -33 -37 -34 -37 -8 l0 20 -20 0
c-11 0 -20 -4 -20 -8 0 -4 -16 -6 -36 -4 l-36 4 23 12 c13 6 53 11 89 11 l65
0 -28 -27z m574 -18 c5 0 9 -4 9 -10 0 -17 -25 -11 -37 9 l-12 20 12 4 c7 2
13 -2 15 -10 2 -7 8 -13 13 -13z m87 -7 l4 -13 -21 0 -21 0 0 16 0 15 17 -3
c9 -2 18 -9 21 -15z" />
  </g>
  <g transform="translate(0.000000,188.000000) scale(0.100000,-0.100000)" fill="#134d0a" stroke="none">
    <path d="M567 1814 c-107 -42 -189 -64 -239 -64 l-38 0 0 -15 0 -14 34 -6 33
-7 82 16 82 15 88 41 c48 22 93 40 99 40 7 0 12 7 12 15 l0 15 -32 -1 c-18 0
-72 -16 -121 -35z" />
    <path d="M1240 1825 c0 -8 6 -15 13 -15 6 0 41 -14 77 -31 76 -36 133 -55 213
-69 l58 -11 45 7 44 6 0 14 0 14 -45 0 c-66 0 -139 18 -248 61 -53 22 -111 39
-127 39 l-30 0 0 -15z" />
    <path d="M200 1613 c0 -50 -29 -152 -70 -248 l-40 -94 0 -55 0 -56 14 0 13 0
5 43 c3 23 21 79 41 124 38 86 67 205 67 273 l0 40 -15 0 -15 0 0 -27z" />
    <path d="M1744 1605 c-14 -55 22 -194 82 -320 13 -29 24 -57 24 -63 0 -7 7
-12 15 -12 l15 0 0 30 c0 16 -17 74 -39 127 -40 101 -61 182 -61 233 l0 30
-15 0 c-8 0 -17 -11 -21 -25z" />
    <path d="M1490 1503 c-49 -18 -130 -122 -218 -278 l-51 -91 -32 -14 c-18 -8
-35 -21 -37 -27 l-4 -13 16 0 c9 0 16 -2 16 -4 0 -12 -72 -126 -79 -126 -5 0
-12 -10 -15 -22 -8 -32 -91 -139 -121 -157 -14 -9 -25 -21 -25 -27 0 -15 -35
-46 -43 -37 -4 3 -7 1 -7 -5 0 -16 -84 -55 -107 -50 l-18 3 -3 38 -3 37 13 5
c21 8 138 119 138 131 0 5 19 30 43 54 24 25 99 115 167 200 67 85 149 181
181 212 33 31 59 62 59 68 l0 11 -29 -15 c-33 -18 -110 -104 -201 -226 -35
-47 -66 -89 -70 -93 -4 -4 -1 21 6 55 18 83 17 170 0 213 l-15 35 -33 20 c-81
49 -198 -4 -198 -89 l0 -30 46 -45 47 -44 0 -26 0 -26 13 0 c7 0 16 9 19 20
l7 21 -16 24 c-9 14 -27 32 -40 40 -13 9 -29 29 -36 44 l-11 28 11 25 c40 86
145 71 171 -25 l12 -42 -13 -75 c-7 -41 -20 -101 -30 -132 l-17 -57 9 -9 10
-10 -36 -24 c-20 -12 -36 -28 -36 -34 0 -14 -45 -56 -52 -48 -4 3 -9 -3 -12
-13 -4 -10 -19 -27 -34 -37 l-27 -19 24 26 c32 35 20 47 -14 13 -14 -14 -29
-26 -33 -26 -4 0 -16 -14 -26 -31 l-18 -31 -36 -15 -35 -15 -34 7 -33 6 -16
24 -16 24 4 52 3 52 -11 4 -11 4 -13 -55 -13 -55 6 -38 6 -38 28 -24 27 -23
49 5 c27 4 55 11 62 17 l13 11 -5 -20 -5 -21 16 -25 17 -26 42 2 c23 2 51 8
62 16 11 7 27 13 37 13 10 0 18 4 18 10 l0 9 17 -6 16 -6 -7 11 -6 11 35 12
c19 7 35 18 35 24 0 6 9 17 20 25 11 8 20 20 20 27 0 6 8 18 18 25 10 7 33 39
51 71 18 31 37 57 42 57 5 0 9 6 9 14 0 8 19 47 42 87 l42 72 48 21 c50 21 65
38 26 29 l-23 -6 13 14 c16 18 15 32 -2 26 l-15 -6 31 52 c95 161 173 257 210
257 l19 0 -6 -22 c-10 -33 -81 -124 -177 -226 -17 -18 -29 -34 -26 -37 5 -6
168 155 168 167 0 4 7 8 15 8 29 0 15 -29 -87 -181 -56 -84 -108 -170 -116
-192 l-15 -38 16 -16 16 -16 14 12 15 12 -5 20 -6 20 29 30 28 29 18 -59 18
-59 40 -36 40 -36 23 0 c28 0 47 17 47 42 0 20 -16 24 -23 6 l-4 -13 -29 15
c-35 19 -82 84 -90 126 l-6 31 59 33 c65 37 113 77 113 96 0 37 -102 15 -154
-34 l-28 -27 75 106 c120 170 128 194 57 165 l-40 -16 15 24 16 25 -3 33 -3
33 -20 2 c-11 1 -27 -1 -35 -4z m60 -331 c0 -5 -10 -14 -22 -20 -13 -6 -38
-21 -57 -33 l-34 -23 12 21 c22 43 101 85 101 55z m-132 -69 c-15 -35 -29 -55
-36 -49 -4 5 36 76 44 76 2 0 -2 -12 -8 -27z" />
    <path d="M1705 1198 c-74 -40 -169 -172 -163 -224 l3 -29 38 -3 37 -3 0 10 c0
6 -9 11 -20 11 l-20 0 0 26 c0 14 9 39 20 54 l20 29 55 12 54 12 26 37 c32 45
31 58 -1 70 -30 12 -24 12 -49 -2z m45 -26 c0 -20 -95 -90 -106 -79 -2 2 16
23 41 46 42 39 65 51 65 33z" />
    <path d="M90 679 l0 -50 41 -96 c38 -90 68 -200 69 -250 l0 -23 16 0 17 0 -6
78 -6 77 -25 70 c-13 39 -36 97 -50 130 -14 33 -26 72 -26 88 l0 27 -15 0 -15
0 0 -51z" />
    <path d="M1850 659 c0 -6 -18 -51 -39 -99 -22 -48 -47 -124 -56 -169 l-17 -82
6 -35 7 -34 14 0 15 0 0 35 c0 56 20 134 61 238 22 53 39 111 39 127 l0 30
-15 0 c-8 0 -15 -5 -15 -11z" />
    <path d="M270 165 l0 -15 48 0 c65 0 158 -24 258 -65 46 -19 98 -35 114 -35
l30 0 0 15 c0 8 -5 15 -10 15 -6 0 -41 14 -78 31 -37 18 -96 40 -132 50 l-65
19 -82 0 -83 0 0 -15z" />
    <path d="M1526 164 c-37 -8 -109 -33 -160 -54 -50 -22 -97 -40 -103 -40 -7 0
-13 -7 -13 -15 l0 -15 30 0 c16 0 64 14 107 31 97 38 214 69 265 69 l38 0 0
14 0 13 -37 7 c-47 7 -43 8 -127 -10z" />
  </g>
  <g transform="translate(0.000000,188.000000) scale(0.100000,-0.100000)" fill="#e8efea" stroke="none">
    <path d="M552 1819 c-149 -57 -269 -75 -338 -49 -15 6 -30 8 -33 4 -3 -4 0 -9
7 -11 6 -3 9 -9 6 -15 l-7 -10 -8 13 c-16 27 -19 1 -3 -36 l16 -38 8 12 8 13
4 -13 c3 -8 8 -11 12 -7 4 3 2 16 -4 29 l-12 22 18 -8 c105 -43 237 -25 405
55 35 16 69 30 76 30 6 0 15 5 19 11 l7 12 -29 -7 c-16 -4 -64 -23 -108 -43
-43 -19 -113 -42 -156 -50 l-77 -16 -59 9 -59 8 86 8 86 7 94 35 c136 49 159
59 159 68 0 12 -5 10 -118 -33z" />
    <path d="M800 1853 c0 -5 16 -15 36 -22 l37 -13 -13 -8 -13 -8 32 -16 c17 -9
37 -14 43 -10 l11 7 -6 -10 c-8 -12 20 -39 30 -30 3 4 12 2 18 -3 l13 -10 26
10 27 10 -7 12 -7 11 10 -6 c5 -3 35 4 67 17 87 35 87 45 -1 21 -10 -3 -1 3
19 13 37 16 49 32 27 32 -20 0 -118 -53 -140 -76 l-21 -23 -26 24 c-27 25
-103 68 -139 80 l-23 6 0 -8z" />
    <path d="M1290 1842 c0 -29 271 -112 368 -113 l57 0 -25 -11 -25 -10 -75 6
-75 5 -70 25 c-39 13 -97 36 -130 50 -57 24 -96 34 -82 20 8 -9 99 -47 201
-85 l79 -30 76 -5 76 -6 42 14 41 15 -8 -21 c-27 -72 0 -237 63 -381 19 -44
38 -89 42 -100 l7 -20 5 12 c2 6 -8 40 -22 75 -53 126 -75 196 -81 265 l-7 70
11 19 11 19 1 -42 c0 -84 85 -353 111 -353 13 0 12 4 -25 93 -44 106 -56 152
-66 250 l-8 80 14 32 c7 17 20 38 29 45 l17 14 -17 12 -17 13 -29 -22 -29 -21
-66 -4 c-86 -6 -168 11 -287 59 -106 43 -107 43 -107 31z" />
    <path d="M165 1475 c-4 -11 -26 -64 -48 -118 l-40 -97 5 -73 5 -72 17 -33 17
-33 10 7 11 7 -6 -21 -7 -20 32 -36 31 -36 -31 -36 -32 -36 7 -20 6 -21 -11 7
-11 7 -20 -43 -20 -43 0 -66 0 -65 44 -108 c24 -58 46 -110 50 -113 15 -15 3
26 -34 118 l-40 99 1 68 c0 37 3 75 7 84 4 10 7 -15 7 -55 l0 -72 40 -88 c21
-48 43 -87 47 -87 12 0 11 2 -29 92 l-38 83 0 71 0 71 39 76 39 76 -37 74 -38
73 -5 60 -5 60 27 64 c43 104 62 153 69 183 l6 27 -9 0 c-5 0 -13 -15 -16 -32
-4 -18 -26 -73 -49 -123 l-41 -90 0 -72 c0 -40 -3 -65 -7 -55 -4 9 -7 47 -7
83 l-1 67 41 101 c22 56 38 107 36 114 l-5 12 -7 -20z" />
    <path d="M1535 1460 c-3 -5 -3 -14 0 -20 3 -5 2 -10 -2 -10 -5 0 -9 -11 -9
-24 l0 -24 15 6 15 6 -12 4 c-7 2 -9 9 -6 14 8 12 14 58 9 58 -2 0 -7 -4 -10
-10z" />
    <path d="M896 1394 l-6 -16 -16 6 c-18 7 -44 -10 -44 -27 0 -6 6 -3 13 8 l14
18 11 -7 c7 -4 21 -1 33 7 l20 15 -9 6 c-6 3 -13 -1 -16 -10z" />
    <path d="M1422 1307 c-12 -13 -19 -27 -15 -30 3 -4 1 -7 -5 -7 -7 0 -12 -5
-12 -11 0 -16 25 -5 25 12 0 8 4 20 9 28 l9 13 8 -13 8 -14 -2 23 c-2 27 1 27
-25 -1z" />
    <path d="M790 1193 c-14 -9 -28 -22 -32 -27 l-7 -11 -21 13 c-34 21 -37 13 -5
-13 17 -13 38 -24 49 -25 l18 0 -11 14 -12 14 16 16 c9 9 23 16 30 16 8 0 17
5 20 10 10 16 -18 12 -45 -7z" />
    <path d="M1290 1200 c0 -5 0 -13 1 -16 0 -4 -5 -10 -13 -15 l-13 -8 11 -11 11
-11 14 17 14 17 -12 4 c-7 2 -9 11 -6 19 3 8 2 14 -1 14 -3 0 -6 -4 -6 -10z" />
    <path d="M1482 1184 l-22 -15 0 13 0 13 -10 -15 -9 -14 11 -13 10 -13 -16 -6
c-9 -3 -13 -10 -10 -15 5 -8 -9 -13 -28 -10 -4 0 -5 -6 -2 -14 l6 -14 15 14
c8 9 19 13 24 10 l9 -6 -6 15 -5 14 35 29 c49 39 48 62 -2 27z" />
    <path d="M865 1145 c5 -16 8 -40 8 -52 -1 -13 4 -23 9 -23 l11 0 -6 41 c-3 23
-11 47 -18 53 l-12 11 8 -30z" />
    <path d="M565 1110 l-7 -40 -32 -27 -33 -28 5 -37 c2 -21 9 -38 14 -38 l10 0
-4 42 -3 41 32 16 c17 9 31 23 30 31 0 8 2 27 6 42 l7 27 -9 5 -9 6 -7 -40z" />
    <path d="M1865 1103 l-6 -27 -8 13 -8 12 -33 -68 c-18 -37 -38 -71 -43 -74
-11 -8 -2 -39 10 -39 13 0 32 50 26 66 l-6 16 19 -4 19 -3 22 45 c12 25 24 55
28 68 l6 22 -9 0 c-6 0 -13 -12 -17 -27z" />
    <path d="M730 1079 c-1 -21 24 -69 36 -69 l14 0 0 35 c0 19 -4 35 -10 35 -5 0
-10 -8 -10 -17 l0 -17 -15 20 c-8 10 -15 16 -15 13z" />
    <path d="M804 1036 c3 -12 6 -24 6 -28 0 -5 7 -8 16 -8 l15 0 -8 13 c-4 6 -6
19 -5 28 l3 16 -16 0 -16 0 5 -21z" />
    <path d="M710 1028 c0 -8 5 -19 12 -26 19 -19 -1 -14 -33 9 -16 11 -29 17 -29
14 0 -10 44 -44 57 -45 7 0 22 -10 33 -22 l21 -23 8 14 9 14 27 -7 27 -7 -7
11 -6 10 14 0 c17 0 53 38 44 46 -10 10 -37 -4 -35 -18 l3 -13 -52 -1 -52 -2
-6 18 c-3 10 -12 24 -20 30 l-15 12 0 -14z" />
    <path d="M1725 1019 c-37 -35 -65 -56 -69 -51 -3 3 -6 0 -6 -6 0 -7 3 -12 6
-12 11 0 94 63 94 72 0 11 -12 9 -25 -3z" />
    <path d="M644 939 l0 -20 19 5 18 4 -13 -16 -13 -16 18 7 18 7 -5 -9 c-9 -14
20 -21 33 -8 15 15 14 30 -1 22 -7 -4 -5 0 4 8 l17 14 -11 11 c-12 12 -41 5
-32 -9 l5 -9 -15 6 c-9 3 -16 10 -16 15 0 5 -6 9 -13 9 -7 0 -13 -9 -13 -21z" />
    <path d="M920 938 c11 -11 18 -22 16 -27 -8 -12 55 -12 91 0 18 6 33 15 33 20
0 12 -4 11 -35 -3 l-25 -11 -26 11 c-14 7 -23 15 -21 20 3 4 -8 7 -24 8 l-30
1 21 -19z" />
    <path d="M1136 935 l-6 -17 29 -11 c16 -6 33 -20 36 -31 l7 -21 5 18 c5 21
-13 47 -33 47 -7 0 -17 7 -22 16 l-9 16 -7 -17z" />
    <path d="M738 893 c-16 -20 -28 -43 -28 -52 l1 -16 14 19 c8 11 15 16 15 11 0
-5 6 -3 12 3 l13 13 -15 9 -15 10 17 0 c9 0 19 -4 22 -9 3 -4 17 -6 30 -4 l25
5 16 -16 c9 -9 12 -16 6 -16 -5 0 -13 5 -16 10 -4 6 -11 8 -16 4 -5 -3 -6 -11
-2 -17 l7 -12 -15 12 -15 12 -18 -29 c-18 -31 -12 -42 8 -15 6 8 24 16 39 19
57 10 69 35 37 74 l-19 23 -23 -3 -23 -4 28 -12 c37 -15 34 -18 -12 -14 l-40
4 6 14 c10 26 -12 13 -39 -23z" />
    <path d="M1782 903 c2 -5 17 -34 32 -67 l28 -58 9 13 8 14 7 -32 c4 -18 11
-33 16 -33 l10 0 -6 26 c-12 47 -48 114 -69 129 -23 16 -41 20 -35 8z" />
    <path d="M381 885 c0 -5 11 -23 24 -40 14 -16 25 -25 25 -20 0 6 -11 24 -25
40 -13 17 -24 26 -24 20z" />
    <path d="M646 871 c-3 -5 4 -11 16 -14 22 -6 38 -1 38 11 0 11 -48 13 -54 3z" />
    <path d="M1110 830 c0 -12 -9 -39 -21 -61 -11 -22 -18 -46 -16 -52 4 -14 44
68 51 106 l5 27 -10 0 c-5 0 -9 -9 -9 -20z" />
    <path d="M530 831 c0 -5 -9 -7 -20 -4 l-20 5 0 -11 c0 -6 11 -11 25 -11 l25 0
0 15 c0 8 -2 15 -5 15 -3 0 -5 -4 -5 -9z" />
    <path d="M435 783 c7 -30 23 -53 35 -53 4 0 -1 18 -12 40 -23 46 -33 52 -23
13z" />
    <path d="M785 754 c-22 -20 -32 -31 -23 -25 9 7 21 10 26 7 6 -3 12 4 15 15 3
12 10 19 15 15 5 -3 9 1 9 9 0 19 4 21 -42 -21z" />
    <path d="M400 752 c0 -5 7 -15 15 -22 8 -7 12 -16 9 -21 -3 -5 2 -9 10 -9 9 0
16 6 16 13 -1 14 -50 53 -50 39z" />
    <path d="M1395 742 c-5 -4 -11 -28 -13 -54 l-4 -48 11 0 11 0 0 39 c0 22 5 43
10 46 12 7 13 25 3 25 -5 0 -12 -4 -18 -8z" />
    <path d="M500 730 c0 -5 11 -10 24 -10 13 0 29 -7 36 -15 7 -8 17 -15 23 -15
6 0 -4 11 -23 25 -35 26 -60 32 -60 15z" />
    <path d="M1545 724 c-11 -8 -27 -19 -35 -24 -8 -5 -12 -12 -8 -15 4 -4 19 2
35 13 28 19 34 20 92 7 l31 -7 0 10 c0 14 -30 23 -51 17 l-19 -6 0 10 c0 16
-22 13 -45 -5z" />
    <path d="M322 683 c2 -9 9 -18 17 -21 l14 -5 -7 12 -7 11 20 0 c11 0 23 5 26
10 l6 10 -36 0 -36 0 3 -17z" />
    <path d="M483 680 l1 -20 21 -1 20 -1 -27 -10 c-16 -5 -28 -14 -28 -20 l0 -10
18 7 c9 4 31 11 47 14 l30 7 -3 20 c-5 24 -20 34 -54 34 l-27 0 2 -20z" />
    <path d="M1738 671 l4 -28 -24 -8 -23 -7 18 -5 c10 -3 25 1 33 8 8 6 17 9 21
5 3 -3 1 -6 -6 -6 l-13 0 5 -14 c3 -8 1 -17 -6 -19 -7 -2 -9 -8 -5 -12 10 -11
60 24 52 36 -3 6 2 19 12 30 9 10 15 22 11 25 -9 9 -28 -6 -22 -17 4 -5 -1 -9
-9 -9 l-16 0 -6 25 c-3 14 -12 25 -18 25 l-13 0 5 -29z" />
    <path d="M605 670 c3 -5 -7 -16 -23 -24 -16 -8 -34 -22 -41 -30 l-13 -16 11 0
c6 0 29 12 50 28 41 28 53 52 25 52 -8 0 -13 -4 -9 -10z" />
    <path d="M816 658 c1 -13 3 -27 3 -32 1 -5 8 -3 16 4 l15 12 -11 19 c-13 26
-26 24 -23 -3z" />
    <path d="M1845 665 c-4 -11 -27 -66 -51 -121 l-44 -102 -12 -74 -11 -75 10
-49 c6 -27 14 -58 18 -68 l8 -19 -19 7 c-10 5 -46 13 -80 19 l-61 10 -19 -8
-19 -8 74 -9 c90 -10 104 -18 30 -18 -94 -1 -389 -93 -367 -115 3 -3 45 10 94
28 49 19 112 40 139 48 l50 14 87 0 86 0 29 -21 29 -22 18 10 18 10 -20 21
c-63 67 -54 215 23 401 29 71 40 117 22 95 -39 -47 -106 -273 -108 -364 l-1
-60 -10 40 c-19 80 4 189 77 363 14 35 24 69 22 75 l-5 12 -7 -20z" />
    <path d="M410 660 c0 -5 -7 -10 -15 -10 -8 0 -15 -7 -15 -15 0 -8 7 -15 15
-15 8 0 14 4 13 9 -2 5 6 17 17 25 l20 15 -17 1 c-10 0 -18 -4 -18 -10z" />
    <path d="M1097 655 c-9 -8 -22 -15 -30 -15 -9 0 -17 -6 -20 -12 l-4 -13 -22
19 c-11 11 -24 16 -28 12 -5 -4 0 -12 10 -17 9 -6 15 -14 12 -20 -4 -5 0 -9 8
-9 l14 0 -2 -29 -2 -29 13 5 c6 2 15 0 19 -6 3 -6 2 -11 -3 -11 -5 0 -9 -7 -9
-15 0 -21 10 -19 25 5 7 11 18 20 26 20 l14 0 -6 -22 -5 -22 15 15 16 14 -8
21 -9 21 12 12 11 11 -17 0 c-9 0 -17 -7 -17 -15 l0 -15 -24 0 c-47 0 -43 19
13 76 13 13 22 27 19 30 -3 3 -13 -2 -21 -11z" />
    <path d="M660 640 c0 -5 9 -14 21 -20 11 -7 18 -14 15 -17 -5 -5 38 -33 49
-33 2 0 5 10 7 22 l3 22 25 7 25 7 -27 1 -27 1 -15 -22 c-14 -20 -21 -18 -17
5 0 4 -5 7 -13 7 -8 0 -16 7 -20 15 -6 17 -26 21 -26 5z" />
    <path d="M245 615 l-30 -25 18 0 c10 0 28 -6 40 -14 12 -8 32 -17 45 -21 l22
-6 0 10 c0 5 -13 12 -29 16 l-29 6 -5 20 c-3 10 -1 19 4 19 5 0 9 5 9 10 0 16
-12 11 -45 -15z" />
    <path d="M1567 607 c-9 -14 -14 -33 -11 -41 l6 -16 -18 0 -18 0 12 -12 12 -12
25 24 25 24 12 -12 c15 -15 28 -16 28 -2 0 6 -6 10 -14 10 -8 0 -16 6 -19 13
l-4 12 -16 -14 c-19 -15 -23 -1 -6 16 6 6 9 17 7 23 l-4 13 -17 -26z" />
    <path d="M1646 605 c-11 -8 -17 -17 -14 -21 8 -8 48 14 48 26 0 14 -12 12 -34
-5z" />
    <path d="M1485 577 c-11 -12 -19 -26 -17 -30 1 -4 3 -19 4 -32 2 -26 13 -31
37 -16 l13 9 -16 9 -16 9 11 33 c14 40 9 47 -16 18z" />
    <path d="M853 580 c-34 -14 -29 -17 27 -16 50 1 64 9 34 20 -20 8 -34 7 -61
-4z" />
    <path d="M1190 580 c0 -10 46 -40 61 -40 l12 0 -17 19 c-18 20 -56 34 -56 21z" />
    <path d="M1370 555 c0 -8 6 -15 14 -15 l15 0 3 -32 3 -33 17 -3 17 -3 -5 23
c-3 13 -6 29 -6 36 -1 6 -7 12 -15 12 -7 0 -13 4 -13 9 0 5 -7 11 -15 15 l-15
5 0 -14z" />
    <path d="M1650 561 c0 -5 9 -12 19 -16 l20 -6 -9 -22 c-4 -12 -13 -21 -20 -19
-7 1 -18 -3 -26 -9 -8 -7 -17 -9 -20 -6 -10 9 6 27 24 27 l17 0 -15 10 c-8 5
-24 10 -35 10 l-20 0 -1 -35 -1 -35 41 5 c22 2 42 9 44 15 2 5 10 10 18 10 8
0 14 3 14 8 0 4 3 16 6 28 l5 20 -26 12 c-31 14 -35 15 -35 3z" />
    <path d="M463 536 c-21 -10 -31 -26 -18 -26 12 0 75 29 75 34 0 9 -33 5 -57
-8z" />
    <path d="M873 535 c-18 -8 -33 -18 -33 -24 l0 -10 28 15 c15 7 37 14 50 14
l23 0 -6 10 c-8 13 -23 12 -62 -5z" />
    <path d="M543 530 c-31 -13 -29 -24 2 -16 l25 6 0 -16 0 -16 15 12 14 12 -14
14 c-7 8 -15 14 -17 13 -2 0 -13 -4 -25 -9z" />
    <path d="M662 533 c-21 -8 -2 -23 31 -23 l31 0 -12 -12 c-7 -7 -12 -19 -12
-27 l0 -15 17 16 16 17 14 -17 14 -17 -5 24 c-3 14 0 31 6 38 l10 13 -15 0
c-8 0 -18 -6 -20 -12 l-5 -13 -1 18 -1 17 -27 -1 c-16 0 -34 -3 -41 -6z" />
    <path d="M943 513 c-13 -2 -23 -9 -23 -14 l0 -11 33 7 c17 4 36 11 42 16 l9 9
-19 -1 c-11 -1 -30 -4 -42 -6z" />
    <path d="M1330 505 l0 -14 -15 5 c-17 7 -19 -4 -6 -25 l9 -13 6 11 c4 6 12 9
17 5 l10 -6 -7 -36 -6 -37 11 11 c11 10 16 54 10 97 -3 21 -29 23 -29 2z" />
    <path d="M323 487 c-35 -12 -42 -24 -19 -33 15 -6 65 24 66 39 0 8 -4 8 -47
-6z" />
    <path d="M1141 485 c-1 -24 15 -52 24 -43 4 3 0 19 -9 35 l-15 28 0 -20z" />
    <path d="M585 470 l-6 -10 45 0 46 0 0 10 c0 6 -18 10 -39 10 -22 0 -43 -4
-46 -10z" />
    <path d="M205 445 c9 -40 13 -42 30 -19 18 24 19 38 1 31 -7 -3 -19 0 -26 6
l-13 12 8 -30z" />
    <path d="M1205 455 c11 -8 31 -25 44 -37 l23 -22 -3 19 c-2 11 -14 24 -27 30
-12 5 -22 13 -22 17 0 5 -8 8 -17 8 l-18 -1 20 -14z" />
    <path d="M1456 455 l-5 -15 19 -10 c11 -6 20 -17 20 -24 l0 -13 -40 10 -40 11
0 15 0 15 -12 -13 -13 -13 13 -5 c6 -3 12 -10 12 -17 l0 -12 38 0 c20 1 43 5
50 9 l12 8 0 -10 c0 -6 6 -11 14 -11 l14 0 -11 25 c-7 13 -21 29 -32 34 l-20
10 23 0 c33 1 27 21 -7 21 l-29 0 -6 -15z" />
    <path d="M504 425 c-9 -14 -13 -29 -9 -33 4 -4 10 -1 12 6 3 7 11 19 19 26 16
17 18 26 4 26 -5 0 -17 -11 -26 -25z" />
    <path d="M663 431 c-2 -10 -22 -28 -44 -40 -42 -24 -51 -36 -19 -28 l20 5 0
-14 c0 -8 -4 -14 -10 -14 -5 0 -10 -7 -10 -16 l0 -15 10 6 10 6 0 -16 0 -16
10 6 c6 4 10 14 9 23 -1 10 -1 25 0 34 l1 17 15 -5 15 -6 0 31 c0 37 17 41 26
6 3 -14 11 -25 16 -25 l10 0 -6 16 c-3 9 -9 27 -12 40 -7 28 -34 32 -41 5z" />
    <path d="M750 442 c0 -5 7 -15 15 -22 8 -7 19 -27 23 -44 l8 -31 22 -3 c12 -2
22 1 22 7 0 6 -6 11 -13 11 -7 0 -21 19 -32 42 -18 39 -45 63 -45 40z" />
    <path d="M540 420 l-15 -10 47 0 c26 0 50 5 53 10 l6 10 -38 0 c-21 0 -45 -5
-53 -10z" />
    <path d="M1023 368 c2 -7 -2 -21 -11 -31 -8 -9 -12 -20 -8 -25 4 -4 14 1 21
11 l13 18 35 -20 c19 -10 43 -25 54 -32 l20 -12 19 8 19 8 -25 6 c-27 7 -104
54 -115 71 -9 14 -28 13 -22 -2z" />
    <path d="M1290 365 c-7 -9 -10 -18 -7 -22 8 -7 37 15 37 28 0 14 -16 11 -30
-6z" />
    <path d="M1340 363 c0 -12 11 -34 24 -48 l24 -25 16 6 c9 3 16 10 16 14 0 11
-30 34 -30 24 -1 -5 -12 5 -25 21 l-25 30 0 -22z" />
    <path d="M497 363 c-7 -15 -2 -58 8 -61 12 -3 16 56 5 63 -5 3 -10 2 -13 -2z" />
    <path d="M1430 348 c0 -3 5 -19 11 -37 l11 -32 13 5 c7 2 16 1 21 -4 5 -5 21
-6 36 -3 l28 5 -6 10 -6 10 -25 -6 -24 -7 -14 15 c-20 20 -8 27 39 20 l41 -5
-17 10 c-17 12 -108 27 -108 19z" />
    <path d="M1585 340 c-3 -6 1 -13 9 -16 9 -3 16 -12 16 -19 0 -6 8 -27 17 -46
l17 -33 4 13 c10 30 -49 124 -63 101z" />
    <path d="M860 333 c0 -11 57 -42 64 -35 4 3 -6 14 -21 24 -30 19 -43 23 -43
11z" />
    <path d="M689 296 c-6 -13 -21 -27 -33 -30 l-21 -6 14 -9 14 -9 39 31 c43 34
48 47 18 47 l-20 0 -11 -24z" />
    <path d="M1260 300 c0 -5 -8 -10 -17 -10 l-17 0 17 -17 c19 -19 22 -17 31 15
l7 22 -10 0 c-6 0 -11 -4 -11 -10z" />
    <path d="M560 274 c-14 -13 -31 -22 -37 -19 l-13 4 0 -14 0 -15 28 -2 c35 -2
63 1 81 7 l14 6 -11 11 -12 12 -12 -12 c-7 -7 -20 -12 -31 -12 l-18 0 6 10 c4
6 10 8 15 5 5 -3 14 3 19 14 21 39 8 41 -29 5z" />
    <path d="M1400 262 c0 -16 35 -40 67 -47 l31 -6 -5 21 c-3 11 -10 23 -16 27
l-10 6 7 -18 6 -18 -15 13 c-8 7 -22 10 -30 6 l-15 -5 0 14 c0 8 -4 15 -10 15
-5 0 -10 -4 -10 -8z" />
    <path d="M175 188 c-17 -43 -18 -48 -7 -48 5 0 13 12 19 28 l11 27 1 -22 c1
-28 -28 -59 -52 -55 -9 2 -17 -1 -17 -6 0 -20 23 -18 68 5 l45 23 61 0 c79 0
163 -21 271 -65 71 -30 116 -40 94 -22 -47 40 -275 107 -361 107 l-58 0 0 11
0 10 -21 -6 -21 -7 12 22 c6 12 8 25 4 28 -4 4 -9 1 -12 -7 l-4 -13 -9 13 -8
14 -16 -37z" />
    <path d="M460 173 c0 -10 90 -36 98 -29 5 6 -32 22 -73 32 l-25 6 0 -9z" />
    <path d="M1451 154 c-25 -8 -50 -19 -55 -25 l-11 -12 20 6 c84 22 115 32 115
39 0 11 -16 9 -69 -8z" />
    <path d="M935 144 c-11 -9 -39 -25 -62 -36 -49 -22 -56 -33 -15 -24 l27 6 -35
-17 c-45 -22 -44 -22 -37 -29 3 -3 27 4 54 16 l48 21 -15 10 -15 11 19 -6 c23
-8 47 11 39 31 l-6 15 23 -4 23 -3 4 13 5 12 -19 0 c-10 0 -27 -8 -38 -16z" />
    <path d="M1047 105 c-8 -18 6 -27 30 -19 l18 6 -15 -11 -15 -10 48 -21 c27
-12 51 -19 54 -16 7 7 8 7 -37 29 -19 10 -27 15 -17 12 87 -25 87 -14 0 21
-32 13 -59 24 -59 24 -1 0 -4 -7 -7 -15z" />
    <path d="M1302 96 c-91 -39 -81 -50 13 -15 30 11 55 25 55 30 0 12 -6 11 -68
-15z" />
    <path d="M640 102 c0 -10 79 -36 87 -28 6 5 -16 15 -64 30 l-23 7 0 -9z" />
  </g>
  <g transform="translate(0.000000,188.000000) scale(0.100000,-0.100000)" fill="#121212" stroke="none">
    <path d="M767 1170 l-15 -22 -23 16 c-13 9 -28 16 -34 16 -5 0 16 -17 48 -36
l57 -36 0 -23 c0 -13 -3 -32 -7 -42 l-7 -18 -7 25 -7 25 -1 -30 -2 -30 -14 30
-14 30 5 -40 6 -40 -45 50 c-26 28 -46 45 -47 39 0 -6 9 -19 21 -30 12 -10 30
-31 41 -47 l20 -27 -31 -11 c-17 -6 -31 -15 -31 -20 0 -13 27 -11 36 2 3 6 15
9 25 6 l19 -5 0 11 0 12 8 -10 c4 -5 19 -10 33 -10 l26 -1 0 14 0 13 -20 -5
-19 -5 15 17 14 17 1 52 1 52 -26 21 -26 20 13 15 c7 9 10 18 7 21 -3 3 -12
-4 -20 -16z" />
    <path d="M853 1166 c9 -13 20 -39 25 -57 l10 -34 1 27 c1 28 -28 88 -43 88 -4
0 -1 -11 7 -24z" />
    <path d="M565 1140 c3 -10 2 -35 -3 -54 -6 -19 -7 -36 -2 -38 4 -2 16 -21 26
-42 l19 -39 23 -8 22 -8 0 8 c0 5 -9 11 -20 14 -11 3 -23 13 -26 24 -3 10 -12
30 -20 44 l-14 27 9 46 8 46 -14 0 -14 0 6 -20z" />
    <path d="M502 954 l2 -31 28 -11 c33 -12 37 -3 8 16 -12 7 -25 23 -30 35 l-9
22 1 -31z" />
    <path d="M1063 943 c-21 -8 -15 -18 12 -18 14 0 27 6 30 13 l4 12 -17 -1 c-9
0 -23 -3 -29 -6z" />
    <path d="M694 925 c-10 -8 -15 -15 -10 -15 5 0 1 -9 -9 -20 l-18 -20 -27 0
c-15 0 -33 7 -40 15 -7 8 -16 12 -21 9 -11 -6 -12 -25 -1 -22 4 1 20 -4 37
-11 l30 -12 25 14 c14 8 30 13 36 10 6 -2 14 3 18 12 l6 16 -10 -6 c-14 -9
-12 9 2 23 18 18 4 24 -18 7z" />
    <path d="M990 918 c-36 -10 -70 -42 -70 -65 0 -7 -5 -13 -11 -13 -5 0 -7 -6
-4 -12 4 -7 0 -5 -8 4 l-14 17 -11 -11 c-16 -16 -15 -28 3 -28 8 0 26 -15 42
-34 29 -37 54 -39 28 -3 -19 27 -19 76 0 104 l15 21 35 6 c19 4 35 11 35 16 0
6 -1 10 -2 9 -2 0 -19 -5 -38 -11z" />
    <path d="M1158 910 c18 -11 35 -27 39 -36 l6 -17 -20 -16 c-43 -35 -84 -161
-53 -161 6 0 10 14 10 30 0 33 29 99 52 118 l14 11 37 -10 37 -10 37 -44 37
-45 22 0 22 0 -4 -22 -4 -23 9 20 c5 11 10 25 10 31 l1 11 -24 -4 -23 -5 -22
35 c-24 39 -52 61 -93 71 -16 3 -28 12 -28 20 0 21 -50 66 -74 66 l-21 0 33
-20z" />
    <path d="M749 902 c-24 -25 -52 -72 -44 -72 4 0 13 7 20 17 l12 16 7 -42 7
-43 15 13 15 12 -15 9 c-17 9 -20 35 -10 62 11 28 24 17 24 -19 0 -19 5 -35
10 -35 14 0 12 74 -2 88 -15 15 -19 15 -39 -6z" />
    <path d="M855 901 l8 -14 -16 6 c-19 7 -21 -1 -8 -22 l9 -13 11 18 12 19 -7
-24 -6 -24 11 7 c16 10 13 32 -6 47 l-17 14 9 -14z" />
    <path d="M418 737 l23 -25 -48 -8 c-26 -4 -54 -8 -60 -7 -7 0 -13 -5 -13 -12
l0 -13 53 14 c28 7 63 14 76 14 l24 0 -49 -26 -49 -26 -18 11 -17 11 -23 -11
c-40 -21 -107 -72 -107 -82 l0 -9 34 6 34 7 7 -11 c3 -5 14 -10 23 -10 9 0 32
-9 51 -21 l34 -21 -29 -19 c-16 -10 -42 -19 -57 -19 -30 0 -87 -28 -87 -42 0
-4 15 -8 33 -8 l32 1 40 24 c22 14 53 25 69 25 l28 0 -6 15 -5 15 17 0 c9 0
36 9 60 20 l42 19 0 16 c0 24 58 69 97 76 l34 6 10 -19 c5 -10 16 -18 25 -18
l14 0 -36 35 c-20 20 -39 33 -42 30 -4 -3 0 -11 8 -16 l15 -10 -25 7 c-14 3
-41 14 -60 24 -19 10 -49 21 -67 25 -18 3 -49 18 -70 32 l-38 25 23 -25z m116
-53 l15 -6 -13 -13 c-7 -8 -25 -17 -40 -21 -14 -3 -26 -10 -26 -15 0 -4 21 -2
48 6 77 24 77 21 -5 -45 -7 -6 -17 -10 -23 -10 -5 0 -10 -4 -10 -10 0 -5 5
-10 12 -10 l12 0 -9 -9 c-6 -5 -28 -14 -49 -20 l-39 -10 -29 20 c-16 12 -45
25 -65 31 l-37 10 19 14 c11 8 31 17 45 20 14 3 34 10 45 16 11 7 34 18 50 26
17 9 37 19 45 23 19 10 34 11 54 3z" />
    <path d="M415 586 l-30 -13 43 -4 43 -5 -3 15 c-4 20 -18 22 -53 7z" />
    <path d="M1002 747 l-11 -13 19 -12 19 -12 6 9 c15 25 -15 51 -33 28z" />
    <path d="M1551 724 c-13 -9 -31 -18 -40 -18 -21 -2 -91 -46 -91 -57 0 -5 -8
-9 -18 -9 l-18 0 -15 -42 -16 -43 -42 -9 -42 -9 -29 21 c-16 12 -34 22 -41 22
-11 0 21 -27 86 -73 l25 -18 0 -52 0 -53 -16 -22 -15 -22 10 0 c18 0 31 37 31
90 l0 51 18 -3 17 -4 -3 -15 c-17 -70 -13 -116 11 -141 7 -7 23 -30 36 -50 19
-33 34 -45 44 -36 1 2 13 -5 27 -15 13 -9 37 -17 53 -17 l29 0 -6 16 -6 16 17
-6 c10 -4 47 -9 83 -12 l65 -5 -28 21 c-28 22 -70 93 -71 119 l-1 14 -42 16
c-24 8 -43 20 -43 27 0 6 -7 17 -15 24 l-16 13 12 7 11 7 -34 7 c-19 3 -43 13
-54 21 l-19 15 28 -10 c16 -5 49 -10 73 -10 l46 0 -4 13 c-3 6 -14 13 -26 15
-11 2 -26 10 -32 18 l-12 14 35 0 c20 0 39 -4 42 -10 3 -5 15 -10 26 -10 10 0
19 -4 19 -10 0 -5 -6 -10 -14 -10 -8 0 -16 -7 -20 -15 -3 -8 -12 -15 -21 -15
-8 0 -15 -5 -15 -11 0 -5 4 -8 10 -4 5 3 26 6 47 7 21 0 60 10 86 21 l48 21
-5 12 c-2 6 6 16 20 23 26 12 31 27 12 34 l-13 5 40 18 40 18 -17 4 c-19 4
-25 22 -8 22 5 0 14 8 19 18 l9 18 -34 -4 -34 -4 6 16 6 16 -37 0 -36 0 6 10
6 10 -20 0 c-12 0 -21 -5 -21 -11 0 -5 4 -7 10 -4 l10 6 -6 -16 -6 -16 42 7
43 7 -8 -13 -8 -12 12 -8 12 -7 -58 -22 c-32 -13 -70 -29 -85 -37 -14 -8 -31
-14 -37 -14 l-12 0 11 23 11 22 -23 -26 -23 -27 -52 -7 -53 -7 0 14 0 13 -8
-11 c-4 -6 -17 -13 -30 -17 l-23 -5 7 21 c13 42 77 107 106 107 7 0 24 7 37
16 l23 17 8 -13 7 -12 20 10 c11 6 30 8 42 5 l21 -5 -6 16 c-7 19 -6 19 -39 6
l-27 -10 6 15 c7 19 -4 19 -33 -1z m206 -110 c2 -6 -8 -16 -23 -23 l-26 -11
11 -14 11 -13 -46 8 c-64 12 -64 15 -3 43 56 25 70 27 76 10z m-82 -70 c17 -3
25 -8 18 -11 -7 -2 -10 -10 -7 -17 l5 -13 -28 -6 c-15 -3 -36 -9 -47 -13 l-18
-7 11 21 c15 28 15 29 -14 36 -14 4 -25 10 -25 15 0 13 31 19 55 10 11 -4 34
-11 50 -15z m-201 -29 l20 -15 -20 0 c-10 1 -30 7 -44 15 l-25 14 25 0 c14 0
34 -6 44 -14z m-82 -121 l-5 -44 12 0 c6 0 11 6 11 12 0 19 26 -23 39 -64 7
-20 19 -42 28 -50 l16 -13 -18 35 -18 35 33 -26 c18 -14 35 -35 37 -47 4 -27
3 -27 -53 -2 l-44 21 -28 42 c-15 23 -33 48 -39 55 -16 17 -16 44 -1 94 l12
39 11 -22 12 -22 -5 -43z m80 38 l28 -11 -6 -14 -5 -14 23 -15 c13 -8 34 -18
48 -21 l25 -7 25 -52 c14 -29 26 -56 28 -60 6 -14 -22 -8 -68 14 l-45 21 25 7
25 6 -41 7 -41 7 -18 20 -17 19 31 -9 31 -9 0 10 c0 5 -7 9 -15 9 -24 0 -72
27 -79 45 l-6 15 20 -10 c24 -13 30 -13 30 0 0 6 -7 10 -15 10 -15 0 -55 55
-55 74 0 5 10 1 23 -10 12 -11 34 -25 49 -32z" />
    <path d="M954 694 c3 -9 6 -18 6 -20 0 -2 6 -4 14 -4 l15 0 -2 20 -1 20 -19 0
-19 0 6 -16z" />
    <path d="M1020 668 l16 -13 -3 -37 -3 -38 20 -20 c26 -26 33 -25 66 5 15 14
23 25 18 25 -5 0 -3 4 4 8 l13 9 -7 16 c-3 9 -12 17 -20 17 -7 0 -12 6 -10 13
1 6 1 9 -1 5 -7 -13 -42 -9 -76 7 l-32 16 15 -13z m78 -50 c7 -7 12 -18 12
-25 l0 -13 -25 0 -26 0 11 19 10 19 -13 5 -12 5 16 1 c8 1 20 -4 27 -11z" />
    <path d="M738 614 l4 -24 -31 6 -32 7 -27 -25 c-15 -14 -64 -38 -109 -53 -46
-16 -83 -32 -83 -37 0 -11 4 -10 50 8 50 20 59 14 27 -17 -35 -34 -63 -208
-36 -225 5 -3 9 -14 9 -25 0 -22 18 -26 26 -5 3 8 13 13 22 11 9 -1 11 0 4 2
l-13 5 12 14 c6 7 14 12 18 9 4 -2 13 13 21 33 l13 37 8 -20 8 -20 0 30 c1 17
6 37 11 45 l10 15 0 -12 c0 -7 4 -13 10 -13 5 0 7 6 4 13 -3 8 1 27 7 43 l12
29 4 -20 c9 -41 25 -86 30 -81 3 3 -1 27 -8 55 l-12 49 18 28 17 27 8 -14 c5
-8 11 -31 15 -51 l7 -38 -11 0 c-6 0 -11 -13 -11 -28 0 -25 -29 -81 -30 -57 0
6 -9 -3 -20 -20 -11 -16 -20 -26 -20 -21 l0 8 -12 -9 c-7 -6 -25 -13 -40 -17
-16 -3 -28 -11 -28 -16 0 -9 9 -8 48 7 9 3 22 7 27 8 21 5 85 69 85 86 0 9 6
29 14 44 l14 27 12 -37 12 -36 14 5 c7 3 27 -6 43 -19 l29 -25 50 0 49 0 26
21 26 20 23 -12 c13 -6 31 -19 41 -27 l18 -16 54 2 53 2 15 -14 c15 -16 27
-11 27 9 l0 12 -67 2 -68 2 -42 27 c-24 15 -46 35 -49 45 -3 9 -10 17 -15 17
l-9 0 6 -25 6 -25 -27 -10 c-14 -5 -46 -10 -69 -10 l-43 0 -26 20 c-14 11 -32
20 -41 20 l-16 0 -15 38 -16 37 6 34 7 35 34 34 35 35 44 -6 45 -7 0 10 0 10
-45 0 c-24 0 -55 -5 -69 -11 l-25 -12 -26 17 c-14 9 -25 25 -25 35 0 10 -6 21
-13 24 l-14 5 5 -24z m12 -44 l15 -10 -47 0 -48 0 0 10 c0 13 60 13 80 0z m36
-65 l-21 -45 -7 18 c-11 29 -9 37 20 54 15 10 27 18 28 18 0 0 -9 -20 -20 -45z
m-76 5 c-6 -10 -16 -23 -24 -27 -8 -4 -15 -17 -17 -28 l-4 -20 -35 -4 -35 -4
27 -6 27 -6 -8 -13 c-4 -7 -26 -20 -47 -28 l-39 -15 32 4 32 3 -10 -17 c-5 -9
-12 -19 -16 -21 -5 -1 -18 -21 -29 -43 -12 -21 -26 -41 -32 -43 l-10 -3 -8 43
c-4 24 -6 48 -4 53 2 6 4 26 4 46 1 20 7 43 14 51 6 8 9 18 6 21 -4 3 5 12 20
18 14 7 26 18 26 25 l0 13 38 6 c20 4 44 8 52 10 8 1 23 3 33 4 l18 1 -11 -20z" />
    <path d="M820 622 c0 -14 26 -22 68 -21 l37 1 -43 9 c-23 4 -47 11 -52 14 -6
3 -10 2 -10 -3z" />
    <path d="M882 534 c-18 -7 -32 -16 -32 -19 0 -3 5 -3 12 1 7 4 28 10 48 14
l35 6 -16 6 c-8 3 -29 0 -47 -8z" />
    <path d="M1185 474 c17 -13 43 -36 59 -49 35 -30 42 -32 23 -5 -15 21 -92 80
-104 80 -5 0 6 -12 22 -26z" />
    <path d="M1070 471 c0 -4 -11 -20 -26 -36 -14 -15 -23 -29 -20 -32 7 -7 55 49
56 65 0 6 -2 12 -5 12 -3 0 -5 -4 -5 -9z" />
    <path d="M1141 443 c0 -16 3 -23 5 -16 l5 12 16 -6 15 -6 -13 22 c-19 29 -29
26 -28 -6z" />
    <path d="M1191 415 c0 -14 49 -69 55 -62 3 3 -8 20 -25 39 -17 18 -30 29 -30
23z" />
  </g>
  <g transform="translate(0.000000,188.000000) scale(0.100000,-0.100000)" fill="#c4d8ca" stroke="none">
    <path d="M600 1831 c-36 -15 -90 -36 -120 -46 -30 -9 -59 -22 -65 -28 l-10
-10 30 7 c17 4 77 25 134 47 l105 39 68 0 68 0 -2 -11 c-2 -5 18 -18 44 -28
25 -10 59 -27 75 -38 15 -11 38 -24 51 -27 l22 -7 29 21 c17 11 46 27 66 36
20 8 33 18 31 23 -8 13 31 21 101 21 l63 0 100 -40 c94 -38 132 -48 117 -34
-3 4 -55 26 -113 50 l-108 44 -65 0 -66 0 -63 -30 -64 -30 -5 -19 c-5 -19 -43
-37 -43 -20 0 5 -8 9 -19 9 l-19 0 -5 19 -4 18 -63 32 -63 31 -71 0 -71 -1
-65 -28z" />
    <path d="M1240 1815 c0 -5 24 -16 68 -29 l22 -7 0 9 c0 5 -17 14 -39 20 -43
13 -51 14 -51 7z" />
    <path d="M142 1791 l-13 -8 16 -13 c9 -7 31 -15 48 -17 l32 -3 -30 25 c-34 27
-35 28 -53 16z" />
    <path d="M1757 1761 l-49 -24 17 -9 16 -10 20 18 19 17 0 -17 0 -17 10 6 11 7
-7 20 -6 21 16 -6 c8 -3 18 -2 21 2 11 19 -23 15 -68 -8z" />
    <path d="M523 1758 c-18 -6 -33 -15 -33 -20 l0 -9 23 7 c43 13 67 24 67 29 0
7 -20 5 -57 -7z" />
    <path d="M170 1745 c0 -3 9 -18 20 -33 l21 -28 6 -73 6 -72 10 10 9 9 -6 65
-7 64 -19 31 c-17 28 -40 43 -40 27z" />
    <path d="M1745 1689 c-4 -6 -4 -13 -1 -16 8 -8 36 5 36 17 0 13 -27 13 -35 -1z" />
    <path d="M206 1488 c-4 -24 -25 -84 -46 -134 -21 -50 -42 -104 -46 -119 l-7
-28 12 7 c6 4 11 13 11 19 0 7 14 41 30 76 35 72 70 175 70 203 0 35 -18 18
-24 -24z" />
    <path d="M1790 1475 c0 -21 34 -105 43 -105 l9 0 -7 18 c-4 9 -12 31 -17 47
-6 17 -15 34 -19 40 l-9 9 0 -9z" />
    <path d="M1760 1436 c0 -14 21 -58 26 -54 8 8 -7 58 -17 58 -5 0 -9 -2 -9 -4z" />
    <path d="M1840 1341 c0 -5 7 -25 15 -44 l15 -36 0 -71 0 -70 -11 3 c-6 1 -14
-4 -16 -10 -3 -7 0 -13 5 -13 l10 0 -11 -32 c-7 -18 -22 -42 -33 -53 -48 -45
-55 -85 -21 -119 12 -12 32 -44 44 -69 l23 -47 -11 0 c-6 0 -9 -6 -6 -12 2 -7
10 -12 16 -10 l11 2 0 -70 0 -70 -40 -101 c-23 -56 -39 -107 -37 -113 l5 -11
7 20 c4 11 25 63 47 115 l40 95 -4 75 -5 75 -26 51 c-14 28 -38 66 -53 83
l-27 32 26 27 c14 15 38 52 53 82 l28 55 4 75 4 75 -21 48 c-19 44 -31 59 -31
38z" />
    <path d="M100 1306 c-12 -33 -12 -36 -1 -36 10 0 25 50 17 58 -3 2 -10 -7 -16
-22z" />
    <path d="M1826 1278 c15 -49 25 -71 30 -65 8 8 -18 87 -28 87 l-9 0 7 -22z" />
    <path d="M100 1140 l-15 -9 10 -10 10 -10 15 9 15 9 -10 10 -10 10 -15 -9z" />
    <path d="M774 1128 l-7 -13 8 7 c12 11 35 -11 28 -28 -6 -15 13 -44 29 -44 5
0 3 7 -6 15 -8 9 -13 21 -10 28 2 7 -4 21 -15 31 l-19 17 -8 -13z" />
    <path d="M1725 1110 l-18 -20 36 0 c21 0 37 5 37 10 0 6 -9 10 -21 10 l-20 0
6 10 c10 17 -1 11 -20 -10z" />
    <path d="M123 1077 c2 -33 42 -107 58 -107 5 0 9 -9 9 -20 0 -11 -4 -20 -10
-20 -5 0 -10 -7 -10 -16 0 -9 -10 -25 -22 -36 l-22 -19 -3 -35 c-3 -46 -1 -44
37 34 18 37 36 69 39 72 11 8 6 21 -33 103 -43 87 -46 90 -43 44z" />
    <path d="M724 987 l1 -22 -12 2 -12 3 2 -29 2 -29 12 10 c6 5 10 15 7 23 -3 7
0 16 6 20 l12 8 8 -13 7 -12 5 14 5 13 -22 17 -22 17 1 -22z" />
    <path d="M773 913 c4 -6 4 -13 0 -16 -5 -2 -2 -2 5 -1 l12 3 0 -39 c0 -22 4
-40 10 -40 l10 0 -6 29 -6 28 16 6 c18 7 30 -8 19 -25 -11 -19 -13 -39 -2 -32
5 3 7 9 4 14 -3 5 -1 12 5 15 l11 7 -6 19 -6 19 11 0 c6 0 8 5 5 10 -3 6 -14
10 -23 10 l-17 0 13 -9 14 -8 -18 -7 -17 -6 -20 17 c-11 10 -17 13 -14 6z" />
    <path d="M1195 850 c-4 -11 -10 -18 -15 -15 -5 3 -11 1 -14 -4 -16 -26 15 -17
34 9 12 16 17 30 11 30 -5 0 -13 -9 -16 -20z" />
    <path d="M640 839 l-35 -19 30 6 c17 4 37 13 45 20 20 19 2 16 -40 -7z" />
    <path d="M1052 809 l-13 -21 10 7 11 6 0 -13 0 -13 10 15 c12 18 13 40 2 40
-4 0 -13 -9 -20 -21z" />
    <path d="M1645 710 l-6 -10 15 0 c9 0 16 -4 16 -10 0 -5 7 -10 15 -10 8 0 15
5 15 11 0 5 -5 7 -10 4 -6 -3 -13 1 -16 9 -7 18 -20 21 -29 6z" />
    <path d="M1389 698 c-6 -15 -5 -68 2 -68 5 0 9 16 9 35 0 28 -6 45 -11 33z" />
    <path d="M620 675 c0 -8 -5 -15 -11 -15 l-10 0 7 12 7 11 -12 -7 c-6 -4 -9
-12 -6 -17 10 -16 34 -10 45 11 l11 20 -16 0 c-8 0 -15 -7 -15 -15z" />
    <path d="M1845 655 c-4 -11 -18 -44 -31 -74 -23 -50 -25 -84 -4 -51 18 28 51
123 47 134 l-5 11 -7 -20z" />
    <path d="M1119 639 c-10 -45 -1 -60 20 -35 l11 13 -15 13 c-8 7 -15 11 -16 9z" />
    <path d="M90 626 c0 -14 21 -58 26 -54 8 8 -7 58 -17 58 -5 0 -9 -2 -9 -4z" />
    <path d="M130 621 c0 -4 14 -38 30 -75 34 -74 60 -172 60 -228 0 -51 -20 -139
-30 -133 -5 3 -12 0 -16 -6 l-7 -11 14 -9 c23 -14 34 -10 36 14 1 12 6 45 13
72 l11 50 -7 65 c-4 36 -6 71 -5 78 1 6 -3 12 -9 12 -5 0 -10 7 -10 14 0 18
-67 166 -74 166 -3 0 -6 -4 -6 -9z" />
    <path d="M980 610 c0 -5 5 -10 11 -10 l11 0 -13 -17 -14 -16 21 13 c22 14 34
11 70 -15 l22 -16 6 16 6 16 -10 -6 c-6 -3 -13 1 -16 10 l-7 16 -13 -5 -14 -5
0 15 0 15 -20 -11 -20 -11 0 11 c0 5 -4 10 -10 10 -5 0 -10 -4 -10 -10z" />
    <path d="M452 580 l13 -20 30 6 c36 8 39 10 31 23 l-7 10 -27 -10 -27 -10 -3
10 c-2 6 -8 11 -13 11 -5 0 -4 -9 3 -20z" />
    <path d="M1715 580 c-3 -5 -3 -10 2 -10 4 -1 -3 -7 -17 -15 -14 -8 -20 -14
-14 -15 6 0 16 -10 23 -22 l12 -23 -5 18 c-3 9 -1 17 4 17 l9 0 -6 18 -7 17
20 -15 19 -15 -18 21 c-9 11 -14 24 -10 27 3 4 4 7 0 7 -3 0 -9 -4 -12 -10z" />
    <path d="M1017 530 c5 -20 15 -25 26 -14 9 9 -4 34 -18 34 l-13 0 5 -20z" />
    <path d="M677 483 c-16 -8 -27 -16 -25 -17 2 -1 12 -8 22 -16 l20 -15 -8 13
-8 13 18 20 c20 22 19 22 -19 2z" />
    <path d="M1540 494 c0 -10 31 -36 37 -31 10 10 -6 37 -22 37 -8 0 -15 -3 -15
-6z" />
    <path d="M1400 390 c0 -8 -3 -25 -6 -37 l-6 -23 10 0 c13 0 21 45 11 62 l-9
13 0 -15z" />
    <path d="M1289 350 c-9 -5 -20 -21 -23 -35 l-6 -24 -15 5 c-8 4 -15 2 -15 -4
0 -18 35 -6 45 15 6 12 17 28 24 37 15 18 13 19 -10 6z" />
    <path d="M1755 193 c4 -10 8 -25 9 -33 l1 -15 -25 3 c-32 5 -24 -2 32 -31 43
-22 74 -25 63 -7 -3 5 -13 6 -22 3 l-16 -6 6 16 c3 9 0 32 -9 52 l-14 35 -16
0 -16 0 7 -17z" />
    <path d="M233 165 c-3 -9 -3 -18 0 -21 9 -9 27 6 27 22 0 19 -19 18 -27 -1z" />
    <path d="M490 163 c0 -8 138 -63 155 -63 21 0 -16 21 -78 45 -75 28 -77 28
-77 18z" />
    <path d="M953 150 c-13 -5 -23 -15 -23 -22 0 -7 -21 -23 -47 -36 l-46 -24 -7
12 -8 13 -12 -8 -12 -7 13 -9 14 -9 -27 0 c-16 0 -28 -4 -28 -10 0 -27 84 0
162 53 64 43 75 69 21 47z" />
    <path d="M146 131 l-17 -19 17 -6 18 -7 12 13 12 13 -13 12 -13 12 -16 -18z" />
    <path d="M1000 141 c0 -16 62 -63 115 -87 52 -25 95 -31 95 -14 0 6 -12 10
-26 10 l-25 0 6 9 c8 14 -10 22 -57 26 -24 2 -44 9 -47 16 -10 30 -61 63 -61
40z" />
    <path d="M456 131 c5 -4 23 -13 39 -19 17 -5 38 -13 48 -17 l17 -7 0 10 c0 9
-81 42 -104 42 l-10 0 10 -9z" />
    <path d="M1335 104 c-27 -13 -55 -24 -62 -24 -6 0 -15 -5 -19 -11 l-7 -12 29
7 c46 12 124 48 124 57 0 13 -9 10 -65 -17z" />
    <path d="M1415 94 c-49 -20 -100 -38 -112 -41 -22 -5 -33 -23 -15 -23 15 0
227 82 237 91 l9 9 -14 0 c-8 -1 -55 -17 -105 -36z" />
    <path d="M660 91 c0 -10 50 -25 58 -17 2 3 -7 10 -22 16 -33 12 -36 12 -36 1z" />
    <path d="M580 85 c0 -9 82 -45 103 -45 33 0 17 16 -30 30 -27 8 -54 16 -60 18
-7 2 -13 1 -13 -3z" />
  </g>
  <g transform="translate(0.000000,188.000000) scale(0.100000,-0.100000)" fill="#9bbea6" stroke="none">
    <path d="M570 1815 c-47 -19 -94 -36 -105 -39 -10 -3 -16 -8 -13 -11 6 -7 197
62 213 76 l9 9 -9 -1 c-6 0 -48 -15 -95 -34z" />
    <path d="M680 1826 c-55 -21 -143 -67 -137 -72 3 -3 38 9 79 28 l73 33 65 0
c36 0 75 -4 88 -8 l22 -8 0 9 c0 28 -130 40 -190 18z" />
    <path d="M1101 1811 c-56 -18 -121 -63 -109 -76 4 -4 18 4 31 18 l25 24 66 18
65 18 48 -5 c26 -3 56 -9 66 -13 l17 -7 0 9 c0 32 -127 40 -209 14z" />
    <path d="M890 1800 c0 -5 6 -10 13 -10 7 0 18 -9 25 -20 l12 -20 22 0 22 0
-40 30 c-42 31 -54 36 -54 20z" />
    <path d="M140 1785 c0 -3 9 -15 20 -27 25 -27 34 -92 26 -180 l-6 -70 -40
-106 c-43 -114 -46 -151 -5 -58 37 84 62 164 70 226 4 30 12 58 18 62 l11 6
-12 15 c-7 8 -10 21 -6 30 3 8 1 18 -5 22 -6 3 -11 13 -11 20 l0 15 18 -3 c9
-1 19 2 22 8 l5 10 -40 6 c-21 4 -41 12 -43 18 -4 11 -22 16 -22 6z" />
    <path d="M1326 1780 c8 -8 137 -60 149 -60 20 0 -2 20 -27 25 -18 4 -50 16
-70 26 -21 11 -43 19 -50 19 l-12 0 10 -10z" />
    <path d="M1787 1774 c-3 -3 -3 -12 0 -20 l5 -15 14 12 c8 6 14 15 14 20 0 10
-24 12 -33 3z" />
    <path d="M1753 1728 c1 -13 -2 -33 -7 -45 l-7 -23 10 0 c6 0 11 5 11 12 0 6 7
19 15 28 l15 17 -6 17 c-3 9 -12 16 -19 16 l-13 0 1 -22z" />
    <path d="M1760 1447 c0 -14 51 -142 60 -151 15 -15 12 -1 -16 71 -25 62 -44
98 -44 80z" />
    <path d="M146 1319 c-13 -30 -27 -65 -31 -78 l-7 -24 11 7 c6 4 11 13 11 19 0
7 11 36 25 66 14 30 23 56 20 59 -2 3 -16 -19 -29 -49z" />
    <path d="M1837 1258 c4 -13 8 -52 8 -88 0 -36 -4 -75 -8 -87 l-8 -23 9 0 c12
0 32 69 32 110 0 41 -20 110 -32 110 l-9 0 8 -22z" />
    <path d="M90 1141 c0 -6 4 -12 10 -16 5 -3 7 -11 4 -18 -2 -7 2 -21 10 -32
l15 -20 -2 35 c-3 45 -37 92 -37 51z" />
    <path d="M1760 1044 c-19 -19 -29 -34 -24 -34 12 0 69 58 63 64 -2 2 -20 -11
-39 -30z" />
    <path d="M1814 1025 c-9 -14 -14 -28 -11 -32 7 -6 46 36 47 50 0 16 -20 6 -36
-18z" />
    <path d="M750 999 l0 -10 12 7 11 7 -7 -19 c-4 -10 -4 -15 0 -11 4 4 12 3 18
-3 l12 -9 14 11 15 10 -17 -6 -18 -5 -10 19 c-11 21 -30 27 -30 9z" />
    <path d="M700 964 l0 -11 -25 2 -25 3 6 -10 c4 -6 0 -14 -7 -19 l-14 -10 26 6
27 7 14 -21 c8 -12 18 -18 21 -15 3 4 -4 15 -16 25 l-22 19 30 -6 30 -6 -14
10 c-7 5 -17 16 -22 23 l-9 14 0 -11z" />
    <path d="M500 952 c0 -7 6 -12 12 -12 7 0 2 -7 -10 -16 -12 -8 -22 -20 -22
-26 l0 -11 18 15 c9 9 23 17 30 19 l14 5 -21 18 -21 19 0 -11z" />
    <path d="M1781 913 c8 -13 17 -23 21 -23 5 0 8 -9 8 -19 0 -11 5 -23 10 -26
l10 -6 0 18 c-1 20 -15 40 -44 63 l-19 15 14 -22z" />
    <path d="M120 837 c-33 -69 -34 -84 -4 -73 l16 6 -6 16 c-3 8 3 33 15 55 11
22 18 46 16 52 -3 7 -19 -19 -37 -56z" />
    <path d="M859 824 l-33 -34 26 12 c15 7 24 16 22 19 -2 4 3 12 11 19 l15 12 0
-10 c0 -5 7 -12 15 -16 21 -8 19 7 -4 21 l-18 12 -34 -35z" />
    <path d="M1835 798 c4 -13 10 -26 14 -31 8 -8 -3 -123 -14 -149 l-7 -18 10 0
c11 0 29 64 35 127 l5 42 -14 12 c-8 6 -14 18 -14 25 0 8 -5 14 -11 14 l-10 0
6 -22z" />
    <path d="M976 715 l-5 -15 12 0 12 -1 -19 -14 c-11 -8 -15 -15 -9 -15 7 0 15
5 18 10 l7 11 14 -12 c20 -16 17 -1 -5 27 l-19 24 -6 -15z" />
    <path d="M460 682 c0 -12 24 -22 51 -22 10 0 19 -4 19 -10 0 -5 5 -10 10 -10
l11 0 -10 19 c-6 10 -7 21 -3 25 3 4 -6 2 -22 -4 l-28 -10 -14 11 -14 11 0
-10z" />
    <path d="M604 675 c22 -17 40 -20 32 -6 -4 5 0 12 6 14 7 3 -3 6 -22 6 l-35 0
19 -14z" />
    <path d="M115 660 c14 -47 26 -73 30 -68 7 6 -15 70 -27 83 l-10 10 7 -25z" />
    <path d="M1033 655 c0 -8 10 -23 21 -32 l21 -18 -15 18 -14 19 30 -4 29 -3 -2
-12 c-2 -7 2 -12 9 -10 7 1 12 -2 13 -8 1 -26 35 -50 35 -25 0 6 -7 10 -16 10
-8 0 -13 4 -10 9 3 5 -6 23 -21 40 -27 31 -51 43 -37 19 l7 -13 -14 13 c-18
16 -36 15 -36 -3z" />
    <path d="M989 607 c7 -9 22 -17 32 -17 21 0 27 16 7 17 -7 0 -22 4 -33 9 l-20
8 14 -17z" />
    <path d="M450 591 c0 -5 7 -14 16 -22 l16 -13 8 14 8 13 15 -6 16 -6 -6 15 -5
14 -34 0 c-19 0 -34 -4 -34 -9z" />
    <path d="M647 572 l-16 -18 32 -2 32 -2 -18 11 c-9 6 -15 14 -12 20 10 15 -1
10 -18 -9z" />
    <path d="M1791 519 c-10 -24 -22 -54 -26 -66 l-6 -23 10 0 c6 0 11 6 11 14 0
8 9 36 20 62 11 26 18 49 15 52 -2 3 -13 -15 -24 -39z" />
    <path d="M135 513 c4 -10 16 -43 27 -73 l19 -55 6 -90 5 -90 -25 -47 c-13 -27
-20 -48 -16 -48 5 0 9 5 9 11 0 5 4 8 10 4 11 -7 100 34 100 46 0 14 -12 11
-55 -12 l-40 -21 19 20 c10 12 19 34 20 49 1 15 5 34 10 42 l9 13 -10 7 c-5 3
-15 38 -21 77 -13 80 -50 184 -64 184 l-10 0 7 -17z" />
    <path d="M1538 494 c17 -9 32 -20 32 -25 0 -5 4 -9 9 -9 5 0 8 8 7 18 -2 9
-10 17 -19 17 -8 0 -19 4 -23 8 -4 4 -14 7 -23 7 -9 0 -1 -8 17 -16z" />
    <path d="M450 172 c0 -8 24 -17 105 -39 l20 -5 -10 10 c-8 7 -99 42 -112 42
-2 0 -3 -4 -3 -8z" />
    <path d="M1780 158 c0 -10 4 -18 9 -18 5 0 11 -9 14 -20 3 -11 10 -20 16 -20
17 0 13 12 -14 45 l-25 30 0 -17z" />
    <path d="M940 140 c-14 -11 -49 -29 -78 -40 l-53 -20 -52 0 -52 0 -53 25 c-60
28 -62 28 -62 17 0 -7 14 -14 95 -48 l30 -12 -18 -1 -18 -1 6 -10 c8 -13 92
-13 100 1 4 6 14 8 22 5 20 -8 91 25 126 58 15 14 32 26 38 26 5 0 9 5 9 10 0
15 -12 12 -40 -10z" />
    <path d="M1415 134 c-33 -14 -82 -35 -110 -46 l-49 -20 -66 4 -65 3 -43 28
c-46 31 -67 30 -38 -2 23 -25 110 -63 129 -55 8 3 18 1 22 -5 8 -14 92 -14
100 -1 l6 10 -23 0 -23 1 35 13 c115 45 200 82 200 89 0 11 -10 8 -75 -19z" />
    <path d="M463 134 c12 -12 199 -85 204 -80 6 5 -35 24 -135 62 -64 25 -80 29
-69 18z" />
  </g>
  <g transform="translate(0.000000,188.000000) scale(0.100000,-0.100000)" fill="#52584e" stroke="none">
    <path d="M1345 1220 c-27 -27 -47 -52 -44 -54 2 -2 28 20 57 50 29 30 49 54
45 54 -5 0 -31 -22 -58 -50z" />
    <path d="M810 1198 c-19 -10 -26 -16 -15 -12 11 4 30 8 43 8 12 1 22 4 22 8 0
16 -17 15 -50 -4z" />
    <path d="M679 1006 c7 -9 21 -18 32 -21 11 -4 17 -10 15 -14 -7 -10 32 -7 41
4 l8 8 -11 -6 c-5 -3 -30 5 -53 19 l-44 24 12 -14z" />
    <path d="M450 700 c14 -4 19 -8 13 -9 -7 -1 -13 -5 -13 -11 0 -16 14 -12 26 8
l12 18 -32 1 -31 1 25 -8z" />
    <path d="M1029 585 c34 -15 48 -14 38 2 -3 5 -20 10 -39 11 l-33 2 34 -15z" />
    <path d="M1403 547 l0 -14 19 5 c10 2 24 -1 32 -7 l14 -12 8 12 7 12 -11 -7
c-5 -3 -12 -2 -14 3 -1 5 -15 12 -29 16 l-26 6 0 -14z" />
    <path d="M557 508 c10 -12 12 -18 6 -14 l-13 7 0 -11 c0 -17 24 -6 28 12 l3
15 -21 6 -22 6 19 -21z" />
    <path d="M415 490 l-6 -10 30 0 c17 0 31 5 31 10 0 6 -11 10 -24 10 -14 0 -28
-4 -31 -10z" />
    <path d="M1270 318 c-18 -46 -20 -59 -8 -52 5 3 7 8 4 11 -2 3 4 20 15 39 10
19 15 34 10 34 -5 0 -15 -15 -21 -32z" />
  </g>
  <g transform="translate(0.000000,188.000000) scale(0.100000,-0.100000)" fill="#226629" stroke="none">
    <path d="M694 1843 l19 -5 -57 -24 c-31 -13 -81 -35 -111 -48 -31 -13 -58 -26
-62 -29 -12 -12 57 12 137 48 46 21 100 40 120 42 l38 5 44 -15 c24 -8 51 -18
61 -22 l17 -7 0 11 c0 7 -19 21 -42 31 l-43 20 -70 -1 c-38 -1 -62 -3 -51 -6z" />
    <path d="M1118 1828 c-16 -5 -28 -16 -28 -23 l0 -14 41 14 c58 21 95 18 164
-11 89 -38 214 -84 227 -84 l12 0 -9 9 c-6 4 -32 14 -60 21 -27 8 -81 29 -120
47 -38 18 -76 33 -85 33 l-15 0 15 10 15 10 -65 -1 c-36 0 -77 -5 -92 -11z" />
    <path d="M1295 1832 c15 -13 118 -53 123 -47 3 2 -8 10 -24 16 -70 27 -108 39
-99 31z" />
    <path d="M498 1786 c-37 -12 -71 -26 -75 -31 l-8 -8 15 5 c8 3 40 13 70 23 30
9 59 21 65 26 11 11 14 12 -67 -15z" />
    <path d="M242 1738 c3 -7 24 -16 48 -20 46 -8 70 -1 32 9 -12 3 -19 9 -16 14
l5 9 -36 0 -37 0 4 -12z" />
    <path d="M1702 1743 l-32 -4 5 -10 6 -9 -25 0 c-14 0 -28 -5 -32 -11 l-7 -11
44 7 c57 10 89 22 89 35 0 5 -3 9 -7 8 -5 0 -23 -3 -41 -5z" />
    <path d="M1756 1701 c-4 -5 -8 -33 -10 -63 l-5 -53 13 17 c7 10 16 15 19 12 4
-4 5 16 4 45 -2 48 -9 62 -21 42z" />
    <path d="M193 1611 l-1 -89 -51 -128 c-46 -116 -65 -190 -26 -98 56 130 76
190 88 258 7 43 16 73 21 69 4 -4 5 6 1 22 -19 85 -30 73 -32 -34z" />
    <path d="M1784 1390 c13 -36 36 -92 50 -125 30 -69 32 -106 11 -165 -22 -63
-5 -76 21 -15 l14 34 0 63 0 63 -10 -15 -10 -15 0 15 c0 9 -8 32 -19 52 -10
20 -28 63 -41 95 -13 32 -27 63 -32 68 -5 6 2 -19 16 -55z" />
    <path d="M1822 1380 c20 -56 42 -106 50 -115 5 -5 0 17 -13 50 -12 33 -26 65
-32 70 l-10 10 5 -15z" />
    <path d="M141 1308 c-21 -48 -36 -96 -28 -88 8 8 55 130 50 130 -2 0 -12 -19
-22 -42z" />
    <path d="M95 1142 c8 -44 26 -82 38 -82 l9 0 -6 23 c-4 12 -10 38 -13 58 l-5
36 -15 0 -15 0 7 -35z" />
    <path d="M1825 833 c5 -10 15 -44 24 -75 l15 -57 -16 -48 c-9 -26 -32 -86 -51
-133 -19 -47 -38 -98 -41 -113 l-7 -29 9 6 c6 3 13 22 17 43 3 20 24 76 46
124 21 47 39 93 39 100 l0 14 11 -15 10 -15 -4 75 -4 75 -17 33 c-9 17 -21 32
-27 32 l-11 0 7 -17z" />
    <path d="M106 800 c-9 -22 -16 -51 -16 -64 l0 -23 14 0 14 0 5 41 c3 23 9 51
13 64 l6 22 -10 0 c-5 0 -17 -18 -26 -40z" />
    <path d="M116 660 c3 -14 21 -59 39 -100 18 -41 36 -90 39 -107 4 -18 11 -35
16 -38 19 -12 -27 116 -88 245 l-12 25 6 -25z" />
    <path d="M90 637 c0 -4 20 -56 44 -115 47 -115 71 -216 64 -282 -2 -22 0 -40
5 -40 8 0 12 9 22 53 l6 29 -11 -7 -10 -6 0 23 c-1 50 -30 160 -66 245 -34 81
-54 118 -54 100z" />
    <path d="M1855 585 c-8 -21 -13 -40 -11 -43 3 -2 12 13 21 33 8 21 13 40 11
43 -3 2 -12 -13 -21 -33z" />
    <path d="M1746 253 c10 -55 22 -83 35 -83 l11 0 -6 16 c-3 9 -6 29 -6 45 l0
30 -10 -6 c-5 -3 -10 1 -10 9 0 8 -5 18 -11 21 l-10 7 7 -39z" />
    <path d="M253 173 c-22 -8 -14 -23 13 -23 l25 0 -6 9 -5 10 32 4 33 4 -40 1
c-22 0 -46 -2 -52 -5z" />
    <path d="M436 171 c5 -4 32 -14 59 -21 28 -7 82 -28 122 -47 40 -18 78 -33 85
-34 7 0 4 -4 -7 -9 l-20 -9 68 0 68 -1 34 14 c19 8 35 20 35 25 l0 10 -41 -14
c-59 -21 -106 -18 -174 11 -80 35 -214 84 -228 84 l-11 0 10 -9z" />
    <path d="M1625 171 c3 -6 17 -11 31 -11 l25 0 -6 -10 -6 -10 30 0 c16 0 36 -3
45 -6 l16 -6 0 11 c0 14 -31 26 -94 35 l-48 8 7 -11z" />
    <path d="M1490 158 c-19 -5 -75 -28 -125 -50 l-89 -41 -46 -5 -46 -4 -38 16
c-45 19 -46 19 -46 5 0 -5 16 -17 35 -25 l34 -14 67 0 66 0 97 35 c53 20 102
38 110 41 8 2 11 7 8 10 -3 3 -53 -13 -113 -35 -59 -23 -117 -41 -128 -41
l-21 1 35 13 c19 7 68 27 108 44 40 17 89 34 108 38 19 3 37 10 40 15 6 11
-10 10 -56 -3z" />
    <path d="M461 136 c2 -2 27 -13 54 -24 28 -10 75 -29 105 -41 30 -12 51 -18
45 -13 -5 5 -51 26 -101 46 -84 33 -114 42 -103 32z" />
  </g>
  <g transform="translate(0.000000,188.000000) scale(0.100000,-0.100000)" fill="#56ba7d" stroke="none">
    <path d="M809 1842 l13 -10 -13 -5 c-8 -4 0 -4 16 -1 l30 6 -15 -12 -15 -11
24 6 24 7 -7 -10 -6 -10 30 -12 c17 -7 33 -10 36 -7 7 7 -72 53 -106 62 l-25
6 14 -9z" />
    <path d="M1094 1815 c-28 -14 -61 -37 -75 -52 l-24 -27 35 23 c19 12 43 25 53
28 9 3 17 9 17 14 0 5 8 6 18 3 l17 -6 -15 12 -15 12 30 -6 c17 -3 24 -3 16 1
l-13 5 13 9 c30 19 -10 8 -57 -16z" />
    <path d="M600 1785 c-25 -13 -40 -24 -35 -24 6 0 30 11 55 24 25 13 41 24 35
24 -5 0 -30 -11 -55 -24z" />
    <path d="M1413 1785 c43 -25 173 -55 241 -56 l61 0 -20 -9 c-11 -5 -14 -9 -7
-9 7 -1 27 5 45 13 l33 13 -2 -26 c-1 -14 -3 -32 -3 -39 -1 -7 -5 -10 -11 -7
l-10 6 7 -16 6 -17 8 14 9 13 0 -51 c0 -59 32 -190 55 -231 9 -15 13 -19 9 -8
-33 96 -46 151 -54 224 l-8 86 19 44 c10 24 19 45 19 47 0 1 -21 -6 -47 -18
l-47 -21 -85 6 -86 5 -60 20 c-33 11 -69 23 -80 26 -11 4 -7 0 8 -9z" />
    <path d="M152 1783 c52 -108 91 -158 54 -68 -17 40 -16 41 30 19 18 -9 39 -14
46 -11 l13 5 -25 3 c-14 1 4 5 40 9 l65 7 -70 1 -71 2 -39 20 c-43 22 -48 24
-43 13z" />
    <path d="M1745 1553 c3 -39 9 -82 15 -95 l10 -23 -7 40 c-3 22 -10 65 -14 95
l-8 55 4 -72z" />
    <path d="M101 1123 c-1 -6 2 -18 5 -27 l6 -16 11 7 10 6 -6 -17 -7 -17 25 -39
c24 -38 44 -55 32 -27 -3 6 -17 39 -31 72 -14 33 -26 53 -26 45 l-1 -15 -9 20
c-5 11 -9 15 -9 8z" />
    <path d="M1856 1105 l6 -30 -11 15 -11 15 0 -12 c0 -6 -10 -33 -22 -60 -12
-26 -24 -52 -27 -58 -2 -5 5 -2 16 8 23 20 78 135 69 144 -3 4 -6 0 -6 -8 l0
-14 -10 15 -11 15 7 -30z" />
    <path d="M163 908 c-21 -26 -40 -73 -35 -87 l5 -14 -11 7 -10 6 -11 -32 c-6
-17 -11 -40 -10 -52 1 -12 6 -1 11 23 l10 44 9 -14 9 -14 0 16 c0 8 12 39 26
68 25 49 29 76 7 49z" />
    <path d="M1790 907 c0 -3 11 -28 25 -55 14 -28 25 -56 25 -63 l0 -14 10 15 10
15 0 -14 c0 -8 3 -12 6 -8 7 7 -43 102 -63 118 -7 6 -13 9 -13 6z" />
    <path d="M91 653 c-1 -24 48 -157 55 -150 3 2 -5 26 -16 53 -12 27 -25 64 -30
84 l-8 35 -1 -22z" />
    <path d="M1821 491 c-17 -44 -31 -86 -31 -93 1 -7 16 27 35 77 19 49 32 91 30
93 -1 2 -17 -33 -34 -77z" />
    <path d="M1775 326 c-4 -30 -5 -84 -3 -119 l5 -65 -34 15 c-19 8 -42 12 -51
10 l-17 -5 22 -1 c12 0 24 -5 27 -10 6 -10 87 -51 100 -51 4 0 -3 15 -16 32
l-23 33 0 108 c0 122 -1 128 -10 53z" />
    <path d="M205 217 c-15 -20 -56 -100 -52 -103 2 -2 21 5 42 16 l39 20 65 0
c35 0 62 2 59 5 -2 3 -39 5 -82 6 l-77 1 7 22 c4 11 9 27 11 34 6 15 1 15 -12
-1z" />
    <path d="M1521 165 c-35 -8 -66 -17 -70 -21 -3 -4 8 -3 24 1 17 4 66 13 110
20 l80 13 -40 0 c-22 0 -69 -6 -104 -13z" />
    <path d="M922 125 c-18 -13 -38 -26 -45 -28 -7 -2 -9 -7 -5 -11 8 -9 43 9 81
40 37 31 12 30 -31 -1z" />
    <path d="M1010 136 c0 -14 75 -59 103 -62 l32 -3 -51 23 c-28 13 -55 29 -58
35 -7 11 -26 16 -26 7z" />
    <path d="M1457 108 c-32 -11 -57 -22 -54 -24 2 -2 35 7 73 20 38 14 62 24 54
24 -8 0 -41 -9 -73 -20z" />
  </g>
  <g transform="translate(0.000000,188.000000) scale(0.100000,-0.100000)" fill="#81877d" stroke="none" />
  <g transform="translate(0.000000,188.000000) scale(0.100000,-0.100000)" fill="#2f9c52" stroke="none">
    <path d="M1057 1790 c-62 -39 -60 -47 2 -11 27 16 53 26 57 23 4 -4 4 -1 0 6
-9 15 -5 17 -59 -18z" />
    <path d="M170 1766 c0 -11 32 -77 36 -74 5 6 -24 78 -31 78 -3 0 -5 -2 -5 -4z" />
    <path d="M1780 1749 l0 -10 -12 7 -11 7 7 -11 c4 -6 2 -21 -4 -33 l-12 -21 12
-12 13 -11 -5 15 c-3 8 3 30 13 48 10 17 14 32 9 32 -6 0 -10 -5 -10 -11z" />
    <path d="M150 878 c-11 -18 -20 -40 -19 -48 0 -8 7 1 16 20 8 19 20 41 25 48
6 6 8 12 4 12 -3 0 -15 -15 -26 -32z" />
    <path d="M190 184 c-6 -16 -12 -34 -15 -41 l-4 -12 14 6 c8 3 12 9 9 14 -2 5
0 18 6 30 7 11 9 23 6 26 -3 3 -10 -7 -16 -23z" />
    <path d="M1765 200 c-3 -5 -1 -18 5 -29 14 -27 13 -34 -5 -27 l-15 5 0 -10 0
-11 20 5 c11 3 20 1 20 -4 0 -5 4 -9 10 -9 5 0 1 15 -9 33 -10 17 -16 38 -14
45 5 14 -3 16 -12 2z" />
    <path d="M1665 150 l-60 -7 68 -1 67 -2 0 10 c0 6 -3 9 -7 8 -5 -1 -35 -4 -68
-8z" />
    <path d="M900 106 c-19 -13 -38 -22 -42 -19 -5 2 -8 -1 -8 -6 0 -6 3 -11 8
-11 9 0 82 49 82 55 0 7 -1 6 -40 -19z" />
    <path d="M1030 123 c0 -8 28 -30 62 -48 l27 -15 7 12 7 11 -9 -6 c-5 -3 -28 8
-52 24 -23 16 -42 26 -42 22z" />
  </g>
</svg>